<svg width="17" height="28" viewBox="0 0 17 28" fill="none" xmlns="http://www.w3.org/2000/svg">
<path d="M0.443635 12.9074L12.8158 0.447313C13.102 0.158893 13.4839 0 13.8912 0C14.2986 0 14.6805 0.158893 14.9667 0.447313L15.8778 1.3647C16.4707 1.96249 16.4707 2.93406 15.8778 3.53093L5.48861 13.9942L15.8893 24.4691C16.1755 24.7575 16.3335 25.142 16.3335 25.552C16.3335 25.9624 16.1755 26.3469 15.8893 26.6355L14.9782 27.5527C14.6918 27.8411 14.3101 28 13.9028 28C13.4955 28 13.1135 27.8411 12.8273 27.5527L0.443635 15.0812C0.156803 14.7918 -0.000738144 14.4055 0.000165939 13.9949C-0.000738144 13.5826 0.156803 13.1965 0.443635 12.9074Z" fill="white"/>
</svg>
