<svg width="17" height="28" viewBox="0 0 17 28" fill="none" xmlns="http://www.w3.org/2000/svg">
<path d="M15.8899 12.9074L3.51769 0.447313C3.23154 0.158893 2.84955 0 2.44225 0C2.03494 0 1.65295 0.158893 1.3668 0.447313L0.455675 1.3647C-0.1372 1.96249 -0.1372 2.93406 0.455675 3.53093L10.8449 13.9942L0.444148 24.4691C0.157995 24.7575 0 25.142 0 25.552C0 25.9624 0.157995 26.3469 0.444148 26.6355L1.35527 27.5527C1.64165 27.8411 2.02341 28 2.43072 28C2.83802 28 3.22001 27.8411 3.50617 27.5527L15.8899 15.0812C16.1767 14.7918 16.3342 14.4055 16.3333 13.9949C16.3342 13.5826 16.1767 13.1965 15.8899 12.9074Z" fill="white"/>
</svg>
