<svg width="17" height="28" viewBox="0 0 17 28" fill="none" xmlns="http://www.w3.org/2000/svg">
<path d="M0.443513 12.9074L12.8157 0.447313C13.1018 0.158893 13.4838 0 13.8911 0C14.2984 0 14.6804 0.158893 14.9666 0.447313L15.8777 1.3647C16.4706 1.96249 16.4706 2.93406 15.8777 3.53093L5.48849 13.9942L15.8892 24.4691C16.1754 24.7575 16.3334 25.142 16.3334 25.552C16.3334 25.9624 16.1754 26.3469 15.8892 26.6355L14.9781 27.5527C14.6917 27.8411 14.31 28 13.9027 28C13.4953 28 13.1134 27.8411 12.8272 27.5527L0.443513 15.0812C0.156681 14.7918 -0.000860214 14.4055 4.3869e-05 13.9949C-0.000860214 13.5826 0.156681 13.1965 0.443513 12.9074Z" fill="#9C9C9C"/>
</svg>
