<svg width="40" height="40" viewBox="0 0 40 40" fill="none" xmlns="http://www.w3.org/2000/svg">
<circle r="20" transform="matrix(-1 0 0 1 20 20)" fill="#C04343"/>
<path d="M29.5566 18.9074L17.1844 6.44731C16.8983 6.15889 16.5163 6 16.109 6C15.7017 6 15.3197 6.15889 15.0335 6.44731L14.1224 7.3647C13.5295 7.96249 13.5295 8.93406 14.1224 9.53093L24.5116 19.9942L14.1109 30.4691C13.8247 30.7575 13.6667 31.142 13.6667 31.552C13.6667 31.9624 13.8247 32.3469 14.1109 32.6355L15.022 33.5527C15.3084 33.8411 15.6902 34 16.0975 34C16.5048 34 16.8868 33.8411 17.1729 33.5527L29.5566 21.0812C29.8434 20.7918 30.001 20.4055 30.0001 19.9949C30.001 19.5826 29.8434 19.1965 29.5566 18.9074Z" fill="white"/>
</svg>
