<svg width="40" height="40" viewBox="0 0 40 40" fill="none" xmlns="http://www.w3.org/2000/svg">
<circle cx="20" cy="20" r="20" fill="#C04343"/>
<path d="M10.4434 18.9074L22.8156 6.44731C23.1017 6.15889 23.4837 6 23.891 6C24.2983 6 24.6803 6.15889 24.9665 6.44731L25.8776 7.3647C26.4705 7.96249 26.4705 8.93406 25.8776 9.53093L15.4884 19.9942L25.8891 30.4691C26.1753 30.7575 26.3333 31.142 26.3333 31.552C26.3333 31.9624 26.1753 32.3469 25.8891 32.6355L24.978 33.5527C24.6916 33.8411 24.3098 34 23.9025 34C23.4952 34 23.1132 33.8411 22.8271 33.5527L10.4434 21.0812C10.1566 20.7918 9.99902 20.4055 9.99992 19.9949C9.99902 19.5826 10.1566 19.1965 10.4434 18.9074Z" fill="white"/>
</svg>
