<svg width="55" height="45" viewBox="0 0 55 45" fill="none" xmlns="http://www.w3.org/2000/svg">
<path d="M50.8178 25.4138L49.4027 19.8462C49.7896 19.7654 50.0799 19.4277 50.0799 19.0233V18.1256C50.0799 16.1765 48.4678 14.5909 46.4865 14.5909H40.0411V12.7393C40.0411 11.7802 39.248 11 38.2729 11H5.41862C4.44358 11 3.65041 11.7802 3.65041 12.7393V34.938C3.65041 35.4028 4.03344 35.7796 4.50602 35.7796C4.97849 35.7796 5.36163 35.4029 5.36163 34.938V12.7393C5.36163 12.7083 5.38714 12.6832 5.41862 12.6832H38.2728C38.3043 12.6832 38.3298 12.7083 38.3298 12.7393V28.0004C38.3298 28.4651 38.7128 28.842 39.1854 28.842C39.6579 28.842 40.041 28.4652 40.041 28.0004V27.0463H50.1339L50.1361 27.0465L50.1385 27.0464C51.3804 27.0473 52.435 27.8491 52.7972 28.954H50.1367C49.6643 28.954 49.2811 29.3308 49.2811 29.7956V31.591C49.2811 33.045 50.4837 34.228 51.962 34.228H52.9317V37.9309H50.6945C49.9596 35.8436 47.9424 34.3401 45.5736 34.3401C43.2049 34.3401 41.1876 35.8436 40.4528 37.9309H40.0408V26.5856H38.3296V37.9307H20.5783C19.8434 35.8434 17.8262 34.3399 15.4575 34.3399C13.0887 34.3399 11.0714 35.8434 10.3366 37.9307H5.41862C5.38714 37.9307 5.36163 37.9056 5.36163 37.8746V36.0231H9.06913C9.5416 36.0231 9.92475 35.6463 9.92475 35.1815C9.92475 34.7166 9.54171 34.3399 9.06913 34.3399H0.855611C0.383141 34.3399 0 34.7166 0 35.1815C0 35.6463 0.383034 36.0231 0.855611 36.0231H3.65051V37.8746C3.65051 38.8337 4.44369 39.6139 5.41873 39.6139H10.0403C10.0401 39.6326 10.0388 39.6512 10.0388 39.67C10.0388 42.609 12.4697 45 15.4575 45C18.4452 45 20.8761 42.609 20.8761 39.67C20.8761 39.6511 20.8748 39.6326 20.8746 39.6139H40.1565C40.1563 39.6326 40.155 39.6512 40.155 39.67C40.155 42.609 42.5859 45 45.5736 45C48.5614 45 50.9923 42.609 50.9923 39.67C50.9923 39.6511 50.991 39.6326 50.9908 39.6139H53.7873C54.2597 39.6139 54.6429 39.2372 54.6429 38.7723V29.7954C54.643 27.5791 52.9805 25.7376 50.8178 25.4138ZM40.0411 16.2741H46.4865C47.5243 16.2741 48.3687 17.1047 48.3687 18.1256V18.1816H40.0411V16.2741ZM40.0411 25.3632V19.8648H47.6437L49.0411 25.3632H40.0411ZM15.4575 43.3171C13.4131 43.3171 11.7499 41.6812 11.7499 39.6702C11.7499 37.6592 13.4131 36.0233 15.4575 36.0233C17.5018 36.0233 19.165 37.6592 19.165 39.6702C19.165 41.6812 17.5018 43.3171 15.4575 43.3171ZM45.5738 43.3171C43.5295 43.3171 41.8663 41.6812 41.8663 39.6702C41.8663 37.6592 43.5295 36.0233 45.5738 36.0233C47.6182 36.0233 49.2813 37.6592 49.2813 39.6702C49.2813 41.6812 47.6182 43.3171 45.5738 43.3171ZM52.9319 32.5447H51.9622C51.4275 32.5447 50.9925 32.1168 50.9925 31.5909V30.637H52.9318L52.9319 32.5447Z" fill="#C04343"/>
<path d="M15.4571 37.9312C14.482 37.9312 13.6888 38.7114 13.6888 39.6705C13.6888 40.6295 14.482 41.4098 15.4571 41.4098C16.4321 41.4098 17.2253 40.6295 17.2253 39.6705C17.2253 38.7114 16.4321 37.9312 15.4571 37.9312Z" fill="#C04343"/>
<path d="M45.5735 37.9312C44.5985 37.9312 43.8053 38.7114 43.8053 39.6705C43.8053 40.6295 44.5985 41.4098 45.5735 41.4098C46.5485 41.4098 47.3417 40.6295 47.3417 39.6705C47.3417 38.7114 46.5485 37.9312 45.5735 37.9312Z" fill="#C04343"/>
<path d="M35.5351 34.3398H22.7584C22.286 34.3398 21.9028 34.7166 21.9028 35.1815C21.9028 35.6463 22.2859 36.0231 22.7584 36.0231H35.5351C36.0075 36.0231 36.3907 35.6463 36.3907 35.1815C36.3907 34.7166 36.0076 34.3398 35.5351 34.3398Z" fill="#C04343"/>
<path d="M13.632 30.749H2.68056C2.20809 30.749 1.82495 31.1258 1.82495 31.5906C1.82495 32.0555 2.20799 32.4323 2.68056 32.4323H13.632C14.1045 32.4323 14.4876 32.0555 14.4876 31.5906C14.4876 31.1258 14.1045 30.749 13.632 30.749Z" fill="#C04343"/>
<path d="M29.7516 19.3255C29.4176 18.9969 28.8757 18.9969 28.5417 19.3256L20.9331 26.8097L16.975 22.9163C16.6408 22.5877 16.0991 22.5877 15.765 22.9163C15.4309 23.245 15.4309 23.7778 15.765 24.1065L20.3281 28.595C20.4952 28.7594 20.7142 28.8415 20.9331 28.8415C21.1519 28.8415 21.3711 28.7594 21.538 28.595L29.7515 20.5158C30.0857 20.187 30.0857 19.6542 29.7516 19.3255Z" fill="#C04343"/>
</svg>
