<svg width="45" height="45" viewBox="0 0 45 45" fill="none" xmlns="http://www.w3.org/2000/svg">
<path d="M42.7996 38.3666L32.5497 28.1167C32.2825 27.8495 31.8506 27.8495 31.5834 28.1167L30.6999 29.0003L29.6161 27.9165L30.4997 27.033C30.7669 26.7658 30.7669 26.3339 30.4997 26.0667L28.2495 23.8165L31.6661 20.3999H37.5332C37.7143 20.3999 37.8885 20.3281 38.0163 20.1997L42.7996 15.4164C42.9281 15.2886 42.9998 15.1143 42.9998 14.9333V10.15C42.9998 9.87389 42.8331 9.62448 42.5782 9.51856C42.3219 9.41196 42.0281 9.47073 41.8334 9.66684L37.2503 14.2499H32.7499V9.74953L37.333 5.16644C37.5284 4.97101 37.5872 4.67718 37.4813 4.42161C37.3753 4.16673 37.1259 4 36.8499 4H32.0666C31.8855 4 31.7112 4.07175 31.5834 4.20022L26.8001 8.98352C26.6717 9.1113 26.5999 9.28555 26.5999 9.46663V15.3337L21.8166 20.117L10.8171 9.11745L10.1795 6.56727C10.1249 6.34928 9.96703 6.1723 9.75657 6.09304L4.28994 4.04305C4.03984 3.95012 3.75695 4.01025 3.56698 4.19953L2.20032 5.56619C2.01104 5.75615 1.94954 6.03905 2.04316 6.28983L4.09314 11.7565C4.17241 11.9669 4.34939 12.1255 4.56737 12.1794L7.11687 12.817L18.1171 23.8165L13.3338 28.5998H7.46673C7.28565 28.5998 7.1114 28.6716 6.98362 28.8L2.20032 33.5833C2.07186 33.7111 2.00011 33.8854 2.00011 34.0665V38.8498C2.00011 39.1258 2.16684 39.3752 2.42172 39.4812C2.67797 39.5864 2.97112 39.5283 3.16655 39.3329L7.74963 34.7498H12.25V39.2502L7.66695 43.8333C7.47152 44.0287 7.41275 44.3225 7.51867 44.5781C7.62458 44.833 7.874 44.9997 8.15006 44.9997H12.9334C13.1144 44.9997 13.2887 44.928 13.4165 44.7995L18.1998 40.0162C18.3282 39.8884 18.4 39.7142 18.4 39.5331V33.666L21.8166 30.2494L24.0668 32.4996C24.334 32.7668 24.7659 32.7668 25.0331 32.4996L25.9166 31.616L27.0004 32.6998L26.1168 33.5833C25.8496 33.8505 25.8496 34.2824 26.1168 34.5496L36.3667 44.7995C36.5 44.9327 36.6749 44.9997 36.8499 44.9997C37.0248 44.9997 37.1997 44.9327 37.333 44.7995L42.7996 39.3329C43.0668 39.0657 43.0668 38.6338 42.7996 38.3666ZM7.94985 11.7168C7.86238 11.6294 7.75237 11.5672 7.63278 11.5371L5.24728 10.9406L3.47815 6.22218L4.22229 5.47804L8.94067 7.24718L9.53722 9.63268C9.56729 9.75294 9.62947 9.86228 9.71694 9.94974L20.8504 21.0832L19.0833 22.8503L7.94985 11.7168ZM21.3335 28.8L17.2335 32.9C17.1051 33.0278 17.0333 33.202 17.0333 33.3831V39.2502L12.6505 43.6331H9.79962L13.4165 40.0162C13.5449 39.8884 13.6167 39.7142 13.6167 39.5331V34.0665C13.6167 33.6893 13.3106 33.3831 12.9334 33.3831H7.46673C7.28565 33.3831 7.1114 33.4549 6.98362 33.5833L3.36676 37.2002V34.3494L7.74963 29.9665H13.6167C13.7978 29.9665 13.972 29.8947 14.0998 29.7663L19.5664 24.2996L22.2997 21.5663L27.7664 16.0997C27.8948 15.9719 27.9666 15.7977 27.9666 15.6166V9.74953L32.3495 5.36666H35.2003L31.5834 8.98352C31.455 9.1113 31.3832 9.28555 31.3832 9.46663V14.9333C31.3832 15.3105 31.6894 15.6166 32.0666 15.6166H37.5332C37.7143 15.6166 37.8885 15.5448 38.0163 15.4164L41.6332 11.7995V14.6504L37.2503 19.0332H31.3832C31.2021 19.0332 31.0279 19.105 30.9001 19.2334L26.8001 23.3334L21.3335 28.8ZM36.8499 43.3502L27.5662 34.0665L28.4497 33.1829C28.7169 32.9157 28.7169 32.4839 28.4497 32.2167L26.3997 30.1667C26.1325 29.8995 25.7007 29.8995 25.4335 30.1667L24.5499 31.0502L22.7829 29.2832L27.2833 24.7828L29.0503 26.5498L28.1668 27.4334C27.8996 27.7006 27.8996 28.1324 28.1668 28.3996L30.2168 30.4496C30.484 30.7168 30.9158 30.7168 31.183 30.4496L32.0666 29.5661L41.3503 38.8498L36.8499 43.3502Z" fill="#C04343"/>
<path d="M34.6021 34.2629L33.6357 35.2292L37.7355 39.329L38.7018 38.3626L34.6021 34.2629Z" fill="#C04343"/>
<path d="M31.8655 31.53L30.8992 32.4963L32.2656 33.8628L33.232 32.8964L31.8655 31.53Z" fill="#C04343"/>
</svg>
