<svg width="45" height="45" viewBox="0 0 45 45" fill="none" xmlns="http://www.w3.org/2000/svg">
<path d="M42.2031 41.8113L36.0276 35.6358C35.4248 35.0329 34.4472 35.0329 33.8443 35.6358C33.2414 36.2387 33.2414 37.2162 33.8443 37.8191L40.0198 43.9946C40.6226 44.5974 41.6002 44.5975 42.2031 43.9946C42.806 43.3917 42.806 42.4142 42.2031 41.8113Z" fill="#C04343"/>
<path d="M41.2415 34.7817C37.572 31.1115 37.8127 31.344 37.7094 31.2677L27.9962 24.0949L31.7642 20.3264C34.7937 21.4062 38.2237 20.6597 40.5321 18.3508C43.0471 15.8354 43.7072 11.9897 42.1749 8.78145C41.8177 8.03393 40.8272 7.86462 40.2423 8.44986L37.1359 11.5568C36.6678 12.025 35.9062 12.0251 35.4377 11.5568C34.9684 11.0873 34.9684 10.3277 35.4377 9.8583L38.5441 6.75132C39.1298 6.1656 38.9595 5.17516 38.2126 4.81843C35.0049 3.28576 31.16 3.94605 28.645 6.46138C26.3361 8.77079 25.5906 12.2016 26.6698 15.2309L22.3241 19.577C21.4394 18.8887 22.6069 20.0644 14.2736 11.2264L15.1471 10.3526C15.6997 9.80007 15.5845 8.87483 14.9159 8.47357L8.48449 4.61395C6.79861 3.60221 4.65035 3.86668 3.26012 5.25718C1.86996 6.6476 1.60546 8.79642 2.61701 10.4825L6.47589 16.9152C6.87772 17.5853 7.80319 17.6981 8.3546 17.1466L9.17845 16.3226C17.4686 25.1148 16.3775 23.9205 17.0328 24.7634C17.0484 24.7833 17.0657 24.8009 17.0822 24.8197L13.2287 28.6735C10.2002 27.5941 6.76978 28.3397 4.46097 30.6491C1.94604 33.1645 1.28587 37.0101 2.81833 40.2185C3.17555 40.9661 4.1658 41.1352 4.75093 40.5501L7.85724 37.4431C8.32561 36.9748 9.08724 36.975 9.55545 37.4431C10.0248 37.9125 10.0248 38.6721 9.55545 39.1416L6.44899 42.2485C5.86329 42.8343 6.0337 43.8247 6.78051 44.1815C7.93347 44.7324 9.16844 45 10.3948 45C12.5801 44.9999 14.7371 44.1498 16.3481 42.5386C18.657 40.2291 19.4025 36.7983 18.3233 33.769L21.6142 30.4777L29.2764 39.791C29.3347 39.8616 29.1423 39.6647 32.5693 43.0923C33.8168 44.3401 35.4754 44.9869 37.1063 44.9869C38.303 44.9869 39.4849 44.6384 40.4776 43.9234C43.507 41.7411 43.8642 37.4046 41.2415 34.7817ZM10.0773 13.7749C9.61183 13.2813 8.83147 13.2726 8.3546 13.7496L7.74385 14.3604L4.6763 9.24671C4.23282 8.50745 4.3487 7.56531 4.95825 6.95564C5.56781 6.34589 6.50976 6.23007 7.2488 6.67363L12.3615 9.74185L11.7508 10.3526C11.2915 10.8119 11.2807 11.5532 11.7263 12.0258C21.3014 22.1807 19.7952 20.6526 20.6126 21.2886L18.7903 23.1111C18.1605 22.301 19.6229 23.8985 10.0773 13.7749ZM16.0581 32.6375C15.6982 32.9974 15.6043 33.5451 15.8237 34.0044C16.9183 36.2961 16.4465 39.043 14.6499 40.8399C13.4989 41.9912 11.9582 42.5986 10.3968 42.5985C10.116 42.5985 9.83461 42.5788 9.55457 42.5391L11.2535 40.8399C12.6614 39.4318 12.6616 37.1526 11.2535 35.7444C9.84902 34.3396 7.56351 34.3396 6.15902 35.7444L4.46009 37.4437C4.19999 35.6067 4.80106 33.7057 6.15902 32.3475C7.95565 30.5504 10.702 30.0788 12.9932 31.1734C13.4524 31.3928 13.9999 31.299 14.3599 30.939L28.9349 16.3622C29.2948 16.0023 29.3887 15.4546 29.1694 14.9952C28.0748 12.7037 28.5466 9.95666 30.3432 8.15976C31.7014 6.80138 33.6019 6.20028 35.4384 6.4605L33.7394 8.15976C33.059 8.84023 32.6842 9.74513 32.6842 10.7075C32.6842 11.6699 33.059 12.5747 33.7394 13.2553C35.1439 14.6601 37.4294 14.6601 38.8339 13.2553L40.5329 11.556C40.7929 13.393 40.1919 15.294 38.8339 16.6522C37.0373 18.4492 34.2909 18.921 31.9997 17.8263C31.5406 17.6069 30.993 17.7008 30.633 18.0607L16.0581 32.6375ZM23.3153 28.7764L26.2789 25.8124L29.2993 28.0429L25.6906 31.6523C23.237 28.6701 23.3901 28.8498 23.3153 28.7764ZM39.074 41.9743C37.6734 42.9832 35.6069 42.7338 34.2672 41.3939L31.0937 38.2198L27.2236 33.5158L31.253 29.4857L36.2106 33.1466L39.5433 36.4801C41.0667 38.0037 40.9688 40.6093 39.074 41.9743Z" fill="#C04343"/>
</svg>
