<svg width="45" height="45" viewBox="0 0 45 45" fill="none" xmlns="http://www.w3.org/2000/svg">
<g clip-path="url(#clip0)">
<path d="M5.85302 10.7944H18.1471C18.4557 10.7944 18.706 11.0446 18.706 11.3533V24.765H21.5001V24.2062H20.9413C20.6326 24.2062 20.3824 23.956 20.3824 23.6474C20.3824 23.3388 20.6326 23.0886 20.9413 23.0886H26.5295C26.8381 23.0886 27.0883 23.3388 27.0883 23.6474C27.0883 23.956 26.8381 24.2062 26.5295 24.2062H25.9707V24.765H31.5589V24.2062H31.0001C30.6915 24.2062 30.4413 23.956 30.4413 23.6474C30.4413 23.3388 30.6915 23.0886 31.0001 23.0886H36.5883C36.8969 23.0886 37.1471 23.3388 37.1471 23.6474C37.1471 23.956 36.8969 24.2062 36.5883 24.2062H36.0295V24.765H38.2648C38.5734 24.765 38.8236 25.0152 38.8236 25.3238V36.5003C38.8236 36.8089 38.5734 37.0591 38.2648 37.0591H5.85302C5.54441 37.0591 5.2942 36.8089 5.2942 36.5003V11.3533C5.2942 11.0446 5.54441 10.7944 5.85302 10.7944ZM24.853 24.2062H22.6177V24.765H24.853V24.2062ZM34.9118 24.2062H32.6765V24.765H34.9118V24.2062ZM29.8824 35.9415H37.706V29.2356H29.8824V35.9415ZM29.8824 28.118H37.706V25.8827H29.8824V28.118ZM18.706 35.9415H28.7648V25.8827H18.706V35.9415ZM6.41184 35.9415H17.5883V20.8533H6.41184V35.9415ZM6.41184 19.7356H17.5883V11.9121H6.41184V19.7356Z" fill="#C04343"/>
<path d="M27.0883 34.8235H20.3824C20.0738 34.8235 19.8236 34.5733 19.8236 34.2647V27.5588C19.8236 27.2502 20.0738 27 20.3824 27H27.0883C27.3969 27 27.6471 27.2502 27.6471 27.5588V34.2647C27.6471 34.5733 27.3969 34.8235 27.0883 34.8235ZM26.5294 28.1176H20.9412V33.7059H26.5294V28.1176Z" fill="#C04343"/>
<path d="M16.4707 19.1767C16.1621 19.1767 15.9119 18.9265 15.9119 18.6178V16.3826C15.9119 16.0739 16.1621 15.8237 16.4707 15.8237C16.7793 15.8237 17.0295 16.0739 17.0295 16.3826V18.6178C17.0295 18.9265 16.7793 19.1767 16.4707 19.1767Z" fill="#C04343"/>
<path d="M16.4707 24.7651C16.1621 24.7651 15.9119 24.5148 15.9119 24.2062V21.9709C15.9119 21.6623 16.1621 21.4121 16.4707 21.4121C16.7793 21.4121 17.0295 21.6623 17.0295 21.9709V24.2062C17.0295 24.5148 16.7793 24.7651 16.4707 24.7651Z" fill="#C04343"/>
<path fill-rule="evenodd" clip-rule="evenodd" d="M0.409856 4.26037L3.21749 1.45274C3.38978 1.28045 3.66912 1.28045 3.84141 1.45274L6.64905 4.26037C6.82134 4.43266 6.82134 4.712 6.64905 4.88429C6.47675 5.05658 6.19742 5.05658 6.02513 4.88429L3.97063 2.8298L3.97063 45L3.08827 45L3.08827 2.8298L1.03377 4.88429C0.861484 5.05658 0.582146 5.05658 0.409856 4.88429C0.237565 4.712 0.237565 4.43266 0.409856 4.26037Z" fill="#C04343"/>
<path fill-rule="evenodd" clip-rule="evenodd" d="M40.7396 37.4686L43.5472 40.2762C43.7195 40.4485 43.7195 40.7278 43.5472 40.9001L40.7396 43.7077C40.5673 43.88 40.288 43.88 40.1157 43.7077C39.9434 43.5355 39.9434 43.2561 40.1157 43.0838L42.1702 41.0293L0 41.0293L0 40.147L42.1702 40.147L40.1157 38.0925C39.9434 37.9202 39.9434 37.6409 40.1157 37.4686C40.288 37.2963 40.5673 37.2963 40.7396 37.4686Z" fill="#C04343"/>
</g>
<defs>
<clipPath id="clip0">
<rect width="45" height="45" fill="white" transform="matrix(-1 0 0 1 45 0)"/>
</clipPath>
</defs>
</svg>
