<svg width="45" height="45" viewBox="0 0 45 45" fill="none" xmlns="http://www.w3.org/2000/svg">
<path d="M42.3167 10.8833H27.2833C26.906 10.8833 26.6 11.1893 26.6 11.5666V27.9666H23.1833V27.2833H23.8667C24.244 27.2833 24.55 26.9773 24.55 26.6C24.55 26.2226 24.244 25.9166 23.8667 25.9166H17.0333C16.656 25.9166 16.35 26.2226 16.35 26.6C16.35 26.9773 16.656 27.2833 17.0333 27.2833H17.7167V27.9666H10.8833V27.2833H11.5667C11.944 27.2833 12.25 26.9773 12.25 26.6C12.25 26.2226 11.944 25.9166 11.5667 25.9166H4.73333C4.35596 25.9166 4.05 26.2226 4.05 26.6C4.05 26.9773 4.35596 27.2833 4.73333 27.2833H5.41667V27.9666H2.68333C2.30596 27.9666 2 28.2726 2 28.65V42.3166C2 42.694 2.30596 43 2.68333 43H42.3167C42.694 43 43 42.694 43 42.3166V11.5666C43 11.1893 42.694 10.8833 42.3167 10.8833ZM19.0833 27.2833H21.8167V27.9666H19.0833V27.2833ZM6.78333 27.2833H9.51667V27.9666H6.78333V27.2833ZM12.9333 41.6333H3.36667V33.4333H12.9333V41.6333ZM12.9333 32.0666H3.36667V29.3333H12.9333V32.0666ZM26.6 41.6333H14.3V29.3333H26.6V41.6333ZM41.6333 41.6333H27.9667V23.1833H41.6333V41.6333ZM41.6333 21.8166H27.9667V12.25H41.6333V21.8166Z" fill="#C04343"/>
<path d="M16.35 40.2669H24.55C24.9273 40.2669 25.2333 39.9609 25.2333 39.5835V31.3835C25.2333 31.0062 24.9273 30.7002 24.55 30.7002H16.35C15.9726 30.7002 15.6666 31.0062 15.6666 31.3835V39.5835C15.6666 39.9609 15.9726 40.2669 16.35 40.2669ZM17.0333 32.0669H23.8666V38.9002H17.0333V32.0669Z" fill="#C04343"/>
<path d="M29.3334 21.1332C29.7107 21.1332 30.0167 20.8272 30.0167 20.4499V17.7165C30.0167 17.3392 29.7107 17.0332 29.3334 17.0332C28.956 17.0332 28.65 17.3392 28.65 17.7165V20.4499C28.65 20.8272 28.956 21.1332 29.3334 21.1332Z" fill="#C04343"/>
<path d="M29.3334 27.9667C29.7107 27.9667 30.0167 27.6607 30.0167 27.2834V24.55C30.0167 24.1727 29.7107 23.8667 29.3334 23.8667C28.956 23.8667 28.65 24.1727 28.65 24.55V27.2834C28.65 27.6607 28.956 27.9667 29.3334 27.9667Z" fill="#C04343"/>
<path d="M3.61091 14.1411C3.73408 14.244 3.88945 14.3002 4.04995 14.3H24.5499C24.9273 14.3005 25.2337 13.9951 25.2343 13.6177C25.2346 13.4573 25.1783 13.3018 25.0754 13.1787L18.2421 4.97865C18.112 4.82294 17.9195 4.73308 17.7166 4.73333H17.0333V2.68333C17.0333 2.30596 16.7273 2 16.3499 2H12.2499C11.8726 2 11.5666 2.30596 11.5666 2.68333V4.73333H10.8833C10.6804 4.73308 10.4879 4.82294 10.3578 4.97865L3.52447 13.1787C3.28257 13.4683 3.32126 13.8992 3.61091 14.1411ZM12.9333 3.36667H15.6666V4.73333H12.9333V3.36667ZM11.2038 6.1H17.3961L23.091 12.9333H5.50887L11.2038 6.1Z" fill="#C04343"/>
</svg>
