<svg width="45" height="45" viewBox="0 0 45 45" fill="none" xmlns="http://www.w3.org/2000/svg">
<path d="M42.0921 24.3628C41.7278 24.3628 41.4329 24.6581 41.4329 25.022V41.1561H27.8456V28.6808C27.8456 27.8324 27.1555 27.1423 26.3075 27.1423H18.6926C17.8446 27.1423 17.1545 27.8328 17.1545 28.6808V41.1561H3.56714V25.022C3.56714 24.6581 3.27222 24.3628 2.90796 24.3628C2.54369 24.3628 2.24878 24.6581 2.24878 25.022V41.4637C2.24878 42.0209 2.70231 42.4744 3.25952 42.4744H41.7405C42.2977 42.4744 42.7513 42.0209 42.7513 41.4637V25.022C42.7513 24.6581 42.4563 24.3628 42.0921 24.3628ZM18.4728 41.1561V28.6808C18.4728 28.5596 18.5714 28.4607 18.6926 28.4607H26.3075C26.4287 28.4607 26.5272 28.5596 26.5272 28.6808V41.1561H18.4728Z" fill="#C04343"/>
<path d="M38.9606 38.5517C39.7345 38.5517 40.3641 37.9221 40.3641 37.1482V29.9549C40.3641 29.1811 39.7345 28.5518 38.9606 28.5518H30.8029C30.0291 28.5518 29.3994 29.1811 29.3994 29.9549V37.1482C29.3994 37.9221 30.0291 38.5517 30.8029 38.5517H38.9606ZM30.7178 37.1482V29.9549C30.7178 29.9082 30.7559 29.8701 30.8029 29.8701H38.9606C39.0076 29.8701 39.0458 29.9082 39.0458 29.9549V37.1482C39.0458 37.1953 39.0076 37.2334 38.9606 37.2334H30.8029C30.7559 37.2334 30.7178 37.1953 30.7178 37.1482Z" fill="#C04343"/>
<path d="M14.1971 38.5517C14.9709 38.5517 15.6006 37.9221 15.6006 37.1482V29.9549C15.6006 29.1811 14.9709 28.5518 14.1971 28.5518H6.03937C5.26552 28.5518 4.63586 29.1811 4.63586 29.9549V37.1482C4.63586 37.9221 5.26552 38.5517 6.03937 38.5517H14.1971ZM5.95422 37.1482V29.9549C5.95422 29.9082 5.99233 29.8701 6.03937 29.8701H14.1971C14.2441 29.8701 14.2822 29.9082 14.2822 29.9549V37.1482C14.2822 37.1953 14.2441 37.2334 14.1971 37.2334H6.03937C5.99233 37.2334 5.95422 37.1953 5.95422 37.1482Z" fill="#C04343"/>
<path d="M43.063 12.2669C43.063 11.5628 43.636 10.9901 44.3408 10.9901C44.7051 10.9901 45 10.6948 45 10.3309V8.71799C45 8.35407 44.7051 8.05882 44.3408 8.05882H31.0485C30.6842 8.05882 30.3893 8.35407 30.3893 8.71799C30.3893 9.08226 30.6842 9.37717 31.0485 9.37717H43.6816V9.75655C42.779 9.99344 42.0667 10.7055 41.8294 11.6077H31.4593V5.75615C31.4593 3.98769 30.0205 2.54883 28.252 2.54883H16.7483C14.9795 2.54883 13.541 3.98769 13.541 5.75615V8.05882H0.65918C0.294914 8.05882 0 8.35407 0 8.71799V10.3309C0 10.6948 0.294914 10.9901 0.65918 10.9901C1.36402 10.9901 1.93703 11.5628 1.93703 12.2669C1.93703 12.5048 2.06303 12.7132 2.25185 12.8293V17.3316H1.06567C0.508118 17.3316 0.0545883 17.7851 0.0545883 18.3424V21.9318C0.0545883 22.489 0.508118 22.9425 1.06567 22.9425H2.25185V28.0151C2.25185 28.3791 2.54677 28.6743 2.91103 28.6743C3.2753 28.6743 3.57021 28.3791 3.57021 28.0151V22.9425H41.4844V28.0162C41.4844 28.3801 41.7793 28.6753 42.1436 28.6753C42.5075 28.6753 42.8027 28.3801 42.8027 28.0162V22.9425H43.9889C44.5465 22.9425 45 22.489 45 21.9318V18.3424C45 17.7851 44.5465 17.3316 43.9889 17.3316H42.8027V12.7919C42.9607 12.6714 43.063 12.4812 43.063 12.2669ZM14.859 5.75615C14.859 4.71451 15.7067 3.86719 16.748 3.86719H28.2517C29.2933 3.86719 30.1406 4.71451 30.1406 5.75615V12.9484C30.1406 13.9901 29.2933 14.8374 28.2517 14.8374H16.7483C15.7067 14.8374 14.8594 13.9901 14.8594 12.9484L14.859 5.75615ZM43.6816 21.6242H1.37295V18.65H43.6816V21.6242ZM3.57021 17.3316V12.9261H11.5638C11.9281 12.9261 12.223 12.6312 12.223 12.2669C12.223 11.903 11.9281 11.6077 11.5638 11.6077H3.17059C2.93335 10.7055 2.22095 9.99344 1.31836 9.75655V9.37717H13.5406V12.9488C13.5406 14.7172 14.9795 16.1561 16.748 16.1561H28.2517C30.0205 16.1561 31.459 14.7172 31.459 12.9488V12.9264H41.484V17.3316H3.57021Z" fill="#C04343"/>
<path d="M19.9512 34.1494H19.4238C19.0596 34.1494 18.7646 34.4447 18.7646 34.8086C18.7646 35.1725 19.0596 35.4678 19.4238 35.4678H19.9512C20.3154 35.4678 20.6104 35.1725 20.6104 34.8086C20.6104 34.4447 20.3154 34.1494 19.9512 34.1494Z" fill="#C04343"/>
<path d="M19.8705 11.5L22 7.84946V7.90476V9.04762V9.43651V9.54762V9.93651V11.0794V11.5H19.8705Z" fill="#C04343" stroke="#C04343"/>
</svg>
