<svg width="56" height="69" viewBox="0 0 56 69" fill="none" xmlns="http://www.w3.org/2000/svg">
<path d="M52.3811 37.5251C51.9278 37.5251 51.5608 37.9721 51.5608 38.5229V62.9438H34.6521V44.0609C34.6521 42.7768 33.7933 41.7323 32.738 41.7323H23.2617C22.2064 41.7323 21.3477 42.7773 21.3477 44.0609V62.9438H4.43896V38.5229C4.43896 37.9721 4.07196 37.5251 3.61865 37.5251C3.16534 37.5251 2.79834 37.9721 2.79834 38.5229V63.4094C2.79834 64.2528 3.36273 64.9393 4.05615 64.9393H51.9436C52.637 64.9393 53.2014 64.2528 53.2014 63.4094V38.5229C53.2014 37.9721 52.8344 37.5251 52.3811 37.5251ZM22.9883 62.9438V44.0609C22.9883 43.8775 23.1109 43.7278 23.2617 43.7278H32.738C32.8889 43.7278 33.0115 43.8775 33.0115 44.0609V62.9438H22.9883Z" fill="#C04343"/>
<path d="M48.4843 59.0015C49.4473 59.0015 50.2309 58.0484 50.2309 56.8771V45.9892C50.2309 44.8179 49.4473 43.8654 48.4843 43.8654H38.3325C37.3695 43.8654 36.5859 44.8179 36.5859 45.9892V56.8771C36.5859 58.0484 37.3695 59.0015 38.3325 59.0015H48.4843ZM38.2266 56.8771V45.9892C38.2266 45.9185 38.274 45.8609 38.3325 45.8609H48.4843C48.5428 45.8609 48.5903 45.9185 48.5903 45.9892V56.8771C48.5903 56.9483 48.5428 57.006 48.4843 57.006H38.3325C38.274 57.006 38.2266 56.9483 38.2266 56.8771Z" fill="#C04343"/>
<path d="M17.6674 59.0015C18.6304 59.0015 19.414 58.0484 19.414 56.8771V45.9892C19.414 44.8179 18.6304 43.8654 17.6674 43.8654H7.51562C6.55261 43.8654 5.76904 44.8179 5.76904 45.9892V56.8771C5.76904 58.0484 6.55261 59.0015 7.51562 59.0015H17.6674ZM7.40967 56.8771V45.9892C7.40967 45.9185 7.45709 45.8609 7.51562 45.8609H17.6674C17.726 45.8609 17.7734 45.9185 17.7734 45.9892V56.8771C17.7734 56.9483 17.726 57.006 17.6674 57.006H7.51562C7.45709 57.006 7.40967 56.9483 7.40967 56.8771Z" fill="#C04343"/>
<path d="M53.5895 19.2163C53.5895 18.1505 54.3026 17.2837 55.1797 17.2837C55.633 17.2837 56 16.8368 56 16.286V13.8446C56 13.2938 55.633 12.8469 55.1797 12.8469H38.6381C38.1848 12.8469 37.8178 13.2938 37.8178 13.8446C37.8178 14.396 38.1848 14.8424 38.6381 14.8424H54.3594V15.4166C53.2361 15.7751 52.3496 16.8529 52.0544 18.2186H39.1494V9.3615C39.1494 6.68473 37.3588 4.50684 35.1581 4.50684H20.8423C18.6412 4.50684 16.851 6.68473 16.851 9.3615V12.8469H0.820312C0.367004 12.8469 0 13.2938 0 13.8446V16.286C0 16.8368 0.367004 17.2837 0.820312 17.2837C1.69745 17.2837 2.41052 18.1505 2.41052 19.2163C2.41052 19.5765 2.56732 19.8919 2.80231 20.0675V26.8823H1.32617C0.632324 26.8823 0.0679322 27.5688 0.0679322 28.4122V33.8453C0.0679322 34.6887 0.632324 35.3751 1.32617 35.3751H2.80231V43.0531C2.80231 43.604 3.16931 44.0509 3.62262 44.0509C4.07593 44.0509 4.44293 43.604 4.44293 43.0531V35.3751H51.625V43.0547C51.625 43.6055 51.992 44.0524 52.4453 44.0524C52.8982 44.0524 53.2656 43.6055 53.2656 43.0547V35.3751H54.7418C55.4356 35.3751 56 34.6887 56 33.8453V28.4122C56 27.5688 55.4356 26.8823 54.7418 26.8823H53.2656V20.0109C53.4622 19.8285 53.5895 19.5406 53.5895 19.2163ZM18.4912 9.3615C18.4912 7.78485 19.5461 6.50233 20.8419 6.50233H35.1577C36.4539 6.50233 37.5084 7.78485 37.5084 9.3615V20.2479C37.5084 21.8245 36.4539 23.107 35.1577 23.107H20.8423C19.5461 23.107 18.4916 21.8245 18.4916 20.2479L18.4912 9.3615ZM54.3594 33.3797H1.70856V28.8778H54.3594V33.3797ZM4.44293 26.8823V20.2141H14.3905C14.8438 20.2141 15.2108 19.7677 15.2108 19.2163C15.2108 18.6655 14.8438 18.2186 14.3905 18.2186H3.94562C3.65039 16.8529 2.76385 15.7751 1.64062 15.4166V14.8424H16.8506V20.2484C16.8506 22.9251 18.6412 25.103 20.8419 25.103H35.1577C37.3588 25.103 39.149 22.9251 39.149 20.2484V20.2146H51.6246V26.8823H4.44293Z" fill="#C04343"/>
<path d="M24.8281 52.3379H24.1719C23.7186 52.3379 23.3516 52.7848 23.3516 53.3356C23.3516 53.8865 23.7186 54.3334 24.1719 54.3334H24.8281C25.2814 54.3334 25.6484 53.8865 25.6484 53.3356C25.6484 52.7848 25.2814 52.3379 24.8281 52.3379Z" fill="#C04343"/>
<path d="M34.2096 17.2726H20.9007L27.0551 7.39666V7.70162V8.20162H27.5551H28.5568L29.0529 8.99772H27.5551H27.0551V9.49772V11.807V12.307H27.5551H31.1151L31.6112 13.1031H27.5551H27.0551V13.6031V15.9124V16.4124H27.5551H33.6735L34.2096 17.2726Z" fill="#C04343" stroke="#C04343"/>
</svg>
