<svg width="45" height="45" viewBox="0 0 45 45" fill="none" xmlns="http://www.w3.org/2000/svg">
<g clip-path="url(#clip0)">
<path d="M4.2616 42.8694L38.7787 8.35237C38.89 8.24102 39.0459 8.18164 39.2018 8.18164H40.3152C40.6418 8.18164 40.9091 8.44887 40.9091 8.77548V44.406C40.9091 44.7326 40.6418 44.9998 40.3152 44.9998H4.68472C4.3581 44.9998 4.09087 44.7326 4.09087 44.406V43.2925C4.09087 43.1366 4.15026 42.9808 4.2616 42.8694ZM5.27856 43.8121H39.7214V9.36932H39.4467L5.27856 43.5375V43.8121Z" fill="#C04343"/>
<path d="M19.7015 36.8567L32.766 23.7922C32.9961 23.5621 33.3747 23.5621 33.6048 23.7922C33.7161 23.9036 33.7755 24.052 33.7755 24.2153V37.2798C33.7755 37.6065 33.5083 37.8737 33.1817 37.8737H20.1172C19.7905 37.8737 19.5233 37.6065 19.5233 37.2798C19.5307 37.124 19.5901 36.9681 19.7015 36.8567ZM32.5953 36.686V25.648L21.5572 36.686H32.5953Z" fill="#C04343"/>
<path d="M4.85548 28.2607L24.1702 8.94602C24.4003 8.71591 24.7789 8.71591 25.009 8.94602L30.0492 13.9863C30.2793 14.2164 30.2793 14.5949 30.0492 14.8251L10.7345 34.1398C10.5044 34.3699 10.1258 34.3699 9.89571 34.1398L4.85548 29.0995C4.62537 28.8694 4.62537 28.4908 4.85548 28.2607ZM10.3114 32.8778L10.7345 32.4547L10.3114 32.0316C10.0813 31.8015 10.0813 31.4229 10.3114 31.1928C10.5415 30.9627 10.9201 30.9627 11.1502 31.1928L11.5659 31.6085L12.4047 30.7697L11.1428 29.5078C10.9201 29.2702 10.9275 28.8917 11.165 28.669C11.3952 28.4537 11.7515 28.4537 11.9816 28.669L13.2435 29.9309L14.0823 29.0921L13.6592 28.6764C13.4291 28.4463 13.4291 28.0677 13.6592 27.8376C13.8893 27.6075 14.2679 27.6075 14.498 27.8376L14.9211 28.2607L15.7599 27.4219L14.498 26.16C14.2679 25.9299 14.2679 25.5513 14.498 25.3212C14.7281 25.0911 15.1067 25.0911 15.3368 25.3212L16.5987 26.5831L17.4523 25.7443L17.0292 25.3212C16.7991 25.0911 16.7991 24.7125 17.0292 24.4824C17.2593 24.2523 17.6379 24.2523 17.868 24.4824L18.2912 24.9055L19.13 24.0667L17.868 22.8048C17.6453 22.5673 17.6528 22.1887 17.8903 21.966C18.1204 21.7507 18.4767 21.7507 18.7068 21.966L19.9688 23.2279L20.8076 22.3891L20.3844 21.966C20.1543 21.7359 20.1543 21.3573 20.3844 21.1272C20.6146 20.8971 20.9931 20.8971 21.2232 21.1272L21.6464 21.5503L22.4852 20.7115L21.2232 19.4496C20.9931 19.2195 20.9931 18.8409 21.2232 18.6108C21.4534 18.3807 21.8319 18.3807 22.062 18.6108L23.324 19.8727L24.1628 19.0339L23.7396 18.6108C23.5095 18.3807 23.5095 18.0021 23.7396 17.772C23.9698 17.5419 24.3483 17.5419 24.5785 17.772L25.0016 18.1951L25.8404 17.3563L24.5785 16.0944C24.3558 15.8569 24.3632 15.4783 24.6007 15.2556C24.8308 15.0403 25.1871 15.0403 25.4173 15.2556L26.6792 16.5175L27.518 15.6787L27.0949 15.2556C26.8647 15.0255 26.8647 14.6469 27.0949 14.4168C27.325 14.1867 27.7035 14.1867 27.9337 14.4168L28.3568 14.8399L28.7725 14.4168L25.8329 11.4773L7.35704 29.9532L10.3114 32.8778ZM6.53308 29.0995L25.009 10.6236L24.5859 10.2005L6.10997 28.6764L6.53308 29.0995Z" fill="#C04343"/>
</g>
<defs>
<clipPath id="clip0">
<rect width="45" height="45" fill="white" transform="matrix(-1 0 0 1 45 0)"/>
</clipPath>
</defs>
</svg>
