<svg width="32" height="32" viewBox="0 0 32 32" fill="none" xmlns="http://www.w3.org/2000/svg">
<circle cx="16" cy="16" r="16" fill="#C04343"/>
<path d="M15.9873 8.44275C18.4446 8.44275 18.7286 8.4551 19.7041 8.49214C20.6055 8.52919 21.0871 8.67736 21.4081 8.8132C21.8403 8.98607 22.149 9.18364 22.4701 9.5047C22.7911 9.82575 22.9887 10.1345 23.1616 10.5666C23.2851 10.8877 23.4333 11.3816 23.4826 12.2707C23.532 13.2462 23.532 13.5302 23.532 15.9875C23.532 18.4448 23.5197 18.7288 23.4826 19.7043C23.4456 20.6058 23.2974 21.0873 23.1616 21.4084C22.9887 21.8406 22.7911 22.1493 22.4701 22.4703C22.149 22.7914 21.8403 22.989 21.4081 23.1618C21.0871 23.2853 20.5932 23.4335 19.7041 23.4829C18.7286 23.5323 18.4446 23.5323 15.9873 23.5323C13.53 23.5323 13.246 23.5199 12.2705 23.4829C11.369 23.4458 10.8875 23.2977 10.5664 23.1618C10.1342 22.989 9.82551 22.7914 9.50445 22.4703C9.1834 22.1493 8.98583 21.8406 8.81295 21.4084C8.68947 21.0873 8.54129 20.5934 8.4919 19.7043C8.4425 18.7288 8.4425 18.4448 8.4425 15.9875C8.4425 13.5302 8.45485 13.2462 8.4919 12.2707C8.52894 11.3693 8.67712 10.8877 8.81295 10.5666C8.98583 10.1345 9.1834 9.82575 9.50445 9.5047C9.82551 9.18364 10.1342 8.98607 10.5664 8.8132C10.8875 8.68971 11.3814 8.54153 12.2705 8.49214C13.2336 8.4551 13.53 8.44275 15.9873 8.44275ZM15.9873 6.78809C13.4806 6.78809 13.1719 6.80043 12.1964 6.83748C11.2209 6.88687 10.5541 7.03505 9.96134 7.26967C9.35627 7.50428 8.83765 7.81299 8.33137 8.33161C7.82509 8.85024 7.50404 9.35652 7.26942 9.96158C7.04715 10.5419 6.88663 11.2211 6.83723 12.1966C6.80019 13.1721 6.78784 13.4808 6.78784 15.9875C6.78784 18.4819 6.80019 18.8029 6.83723 19.7784C6.88663 20.7539 7.03481 21.4207 7.26942 22.0135C7.50404 22.6185 7.81274 23.1371 8.33137 23.6434C8.83765 24.1497 9.35627 24.4707 9.96134 24.7054C10.5417 24.9276 11.2209 25.0882 12.1964 25.1376C13.1719 25.1869 13.4929 25.1869 15.9873 25.1869C18.4816 25.1869 18.8027 25.1746 19.7782 25.1376C20.7537 25.0882 21.4205 24.94 22.0132 24.7054C22.6183 24.4707 23.1369 24.162 23.6432 23.6434C24.1494 23.1371 24.4705 22.6185 24.7051 22.0135C24.9274 21.4331 25.0879 20.7539 25.1373 19.7784C25.1867 18.8029 25.1867 18.4819 25.1867 15.9875C25.1867 13.4932 25.1744 13.1721 25.1373 12.1966C25.0879 11.2211 24.9397 10.5543 24.7051 9.96158C24.4705 9.35652 24.1618 8.83789 23.6432 8.33161C23.1369 7.82534 22.6183 7.50428 22.0132 7.26967C21.4328 7.0474 20.7537 6.88687 19.7782 6.83748C18.7903 6.80043 18.4816 6.78809 15.9873 6.78809Z" fill="white"/>
<path d="M15.9873 11.2578C13.3818 11.2578 11.2703 13.3694 11.2703 15.9748C11.2703 18.5803 13.3818 20.6919 15.9873 20.6919C18.5928 20.6919 20.7043 18.5803 20.7043 15.9748C20.7043 13.3694 18.5928 11.2578 15.9873 11.2578ZM15.9873 19.0495C14.2956 19.0495 12.9249 17.6789 12.9249 15.9872C12.9249 14.2955 14.2956 12.9248 15.9873 12.9248C17.679 12.9248 19.0496 14.2955 19.0496 15.9872C19.0496 17.6789 17.679 19.0495 15.9873 19.0495Z" fill="white"/>
<path d="M20.8896 12.1721C21.4966 12.1721 21.9886 11.6801 21.9886 11.0731C21.9886 10.4662 21.4966 9.97412 20.8896 9.97412C20.2827 9.97412 19.7906 10.4662 19.7906 11.0731C19.7906 11.6801 20.2827 12.1721 20.8896 12.1721Z" fill="white"/>
</svg>
